# xmcd
#
# Track frame offsets: 
#        150
#        16610
#        31058
#        49920
#        72338
#        96138
#        116540
#        132406
#        153521
#        186024
#        206516
#        229812
#        253276
#        291144
#
# Disc length: 4200 seconds
#
# Revision: 1
# Processed by: cddbd v1.5.2PL0 Copyright (c) Steve Scherf et al.
# Submitted via: ExactAudioCopyFreeDBPlugin 1.0
#
DISCID=c110660e
DTITLE=Lester Young - Swing Time 083 - Lester Young 11 - 1954-55
DYEAR=1954
DGENRE=Jazz
TTITLE0=Lester Young Quintet - Another Mambo
TTITLE1=Lester Young Quintet - Come Rain Or Come Shine
TTITLE2=Lester Young Quintet - Rose Room
TTITLE3=Lester Young Quintet - Somebody Loves Me
TTITLE4=Lester Young Quintet - Touch Me Again (Kiss Me Again)
TTITLE5=Lester Young Quintet - It Don't Mean A Thing
TTITLE6=Lester Young Quintet - I'm In The Mood For Love
TTITLE7=Lester Young Quintet - Big Top Blues
TTITLE8=Lester Young and Harry Edison - Mean To Me
TTITLE9=Lester Young and Harry Edison - Thats All
TTITLE10=Lester Young and Harry Edison - Red Boys Blues
TTITLE11=Lester Young and Harry Edison - Pennies From Heaven
TTITLE12=Lester Young and Harry Edison - She's Funny That Way
TTITLE13=Lester Young and Harry Edison - One O'clock Jump
EXTD=YEAR: 2006
EXTT0=
EXTT1=
EXTT2=
EXTT3=
EXTT4=
EXTT5=
EXTT6=
EXTT7=
EXTT8=
EXTT9=
EXTT10=
EXTT11=
EXTT12=
EXTT13=
PLAYORDER=
